<?xml version="1.0" encoding="utf-8"?>
<!-- Generator: Adobe Illustrator 19.2.0, SVG Export Plug-In . SVG Version: 6.00 Build 0)  -->
<svg version="1.1" id="Layer_1" xmlns="http://www.w3.org/2000/svg" xmlns:xlink="http://www.w3.org/1999/xlink" x="0px" y="0px"
	 viewBox="0 0 597.2 681.2" style="enable-background:new 0 0 597.2 681.2;" xml:space="preserve">
<style type="text/css">
	.st0{opacity:0.5;}
	.st1{opacity:0.5;fill:none;stroke:#C6C6C5;enable-background:new    ;}
	.st2{opacity:0.35;fill:none;stroke:#C6C6C5;enable-background:new    ;}
</style>
<g class="st0">
	<polygon class="st1" points="496,157.2 537.7,242.8 466.8,285.5 	"/>
	<polygon class="st2" points="483.4,323.2 539.8,322.1 513.4,411.9 	"/>
	<polygon class="st1" points="466.8,285.5 426.2,210.7 496,157.2 	"/>
	<polygon class="st2" points="370.1,254.2 466.8,285.5 403.7,302.6 	"/>
	<polygon class="st1" points="350.3,229.5 462.2,183.1 370.1,254.2 	"/>
	<polygon class="st1" points="466.8,285.5 426.2,210.7 370.1,254.2 	"/>
	<polygon class="st2" points="351.7,288.3 370.1,254.2 334.1,255.1 	"/>
	<polygon class="st2" points="350.3,229.5 334.1,255.1 370.1,254.2 	"/>
	<polygon class="st1" points="351.7,288.3 403.7,302.6 370.1,254.2 	"/>
	<polygon class="st1" points="466.8,285.5 483.4,323.2 403.7,302.6 	"/>
	<polygon class="st1" points="537.6,243.2 539.8,322.1 483.4,323.2 	"/>
	<polygon class="st1" points="455.2,397.4 483.4,323.2 514.5,415.2 	"/>
	<polygon class="st2" points="537.7,242.8 466.8,285.5 483.4,323.2 	"/>
	<polyline class="st2" points="403.7,302.6 455.2,397.4 483.4,323.2 	"/>
	<polygon class="st1" points="277.4,388.9 403.7,302.6 351.7,288.3 	"/>
	<polygon class="st1" points="455.2,397.4 403.7,302.6 277.4,388.9 	"/>
	<polygon class="st1" points="355.9,451.2 453.9,397.3 277.4,388.9 	"/>
	<polyline class="st1" points="277.4,388.9 260.6,340.5 351.7,288.3 277.4,388.9 	"/>
	<polygon class="st1" points="262.2,406.8 277.4,388.9 356.8,452 	"/>
	<polygon class="st2" points="331.8,167.7 462.8,170.5 366.5,113.7 	"/>
	<polygon class="st1" points="292.7,114.2 347.2,86.7 312.5,140.7 	"/>
	<polygon class="st2" points="271.6,216.6 310.9,153.8 330.8,180.3 	"/>
	<polygon class="st2" points="334.1,255.1 330.8,180.3 271.6,216.6 	"/>
	<polygon class="st2" points="461.8,183.1 330.8,180.3 350.3,229.5 	"/>
	<polygon class="st1" points="330.8,180.3 350.3,229.5 334.1,255.1 	"/>
	<polygon class="st1" points="539.8,322.1 618.6,321.6 576.7,381.4 	"/>
	<polygon class="st2" points="672.3,349 659.4,411.4 576.7,381.4 	"/>
	<polygon class="st2" points="608.6,454.4 576.7,381.4 513,414.9 	"/>
	<polygon class="st1" points="659.4,411.4 576.7,381.4 608.6,454.4 	"/>
	<polygon class="st2" points="672.3,349 618.6,321.6 576.7,381.4 	"/>
	<polygon class="st1" points="513,414.9 539.8,322.1 576.7,381.4 	"/>
	<polygon class="st2" points="526,532.1 597.6,512 513,414.9 	"/>
	<polygon class="st1" points="435.4,444.1 513,414.9 526,532.1 	"/>
	<polygon class="st1" points="455.2,397.4 513,414.9 435.4,444.1 	"/>
	<polygon class="st1" points="356.2,451.3 435.4,444.1 454.7,397.5 	"/>
	<polygon class="st1" points="432.5,521 526,532.1 435.4,444.1 	"/>
	<polygon class="st2" points="355.3,451.7 356.4,497.6 435.4,444.1 	"/>
	<polygon class="st2" points="432.5,521 340,568.7 435.4,444.1 	"/>
	<polygon class="st1" points="356.4,497.6 340,568.7 435.4,444.1 	"/>
	<polygon class="st2" points="528.4,554.6 451,616.5 434.9,543.6 	"/>
	<polygon class="st1" points="500.2,128.1 369.5,97.9 465.8,154.7 	"/>
	<polygon class="st2" points="537.8,241.5 647.4,227.5 496.2,156.5 	"/>
	<polygon class="st2" points="539.8,322.1 578,273.5 537.8,241.5 	"/>
	<polygon class="st1" points="618.6,321.6 578,273.5 539.8,322.1 	"/>
	<polygon class="st2" points="618.3,323 598.3,266.5 577.7,274.8 	"/>
	<polygon class="st1" points="597.6,235.1 598.3,266.5 577.7,274.8 	"/>
	<polygon class="st2" points="656.3,271.6 647.6,227.5 598,233.8 	"/>
	<polygon class="st1" points="618.8,321.6 656.3,271.6 598.8,265.2 	"/>
	<polygon class="st1" points="598,233.8 656.3,271.6 598.8,265.2 	"/>
	<polygon class="st1" points="672.5,349 656.3,271.6 618.8,321.6 	"/>
	<polygon class="st2" points="336.9,290.4 212.2,256.5 245.8,342.6 	"/>
	<polygon class="st1" points="271.6,216.6 333.5,255.1 226.9,254.3 	"/>
	<polygon class="st1" points="351.7,288.3 334.1,255.1 226.9,254.3 	"/>
	<polygon class="st2" points="210.2,204.8 271.6,216.6 226.9,254.3 	"/>
	<polygon class="st2" points="140.9,357.8 214.9,337.7 153.4,327.5 	"/>
	<polygon class="st1" points="140.9,540.7 33.4,474.6 107.2,454.5 	"/>
	<polygon class="st2" points="271.6,216.6 224.1,133.9 310.9,153.8 	"/>
	<polygon class="st2" points="168.7,178.4 176.8,106.5 231,185.2 	"/>
	<polygon class="st1" points="348,452 271.7,487.1 349.1,497.8 	"/>
	<polyline class="st2" points="348,452 320.3,438.3 271.7,487.1 	"/>
	<polygon class="st2" points="260.9,486.1 244.1,406 309.5,437.2 	"/>
	<polygon class="st2" points="219.5,459.7 162.7,495.6 216.1,377.9 	"/>
	<polygon class="st2" points="597.9,233.8 578,273.5 537.8,241.5 	"/>
	<polygon class="st1" points="608.6,454.4 597.6,512 513,414.9 	"/>
	<polygon class="st1" points="243.3,500.8 230.7,599.2 304.3,582.6 	"/>
	<polygon class="st2" points="191.1,567.3 140.9,612.2 178.5,665.8 	"/>
	<polygon class="st2" points="257,340.4 258.5,406.7 273.7,388.8 	"/>
	<polygon class="st2" points="427.5,85.4 390.4,50.8 441.4,14.4 	"/>
	<polyline class="st2" points="269.9,490.3 347.2,501 331,572.1 269.9,490.3 	"/>
	<polygon class="st2" points="425.6,563.3 441.8,636.3 333.2,610.9 	"/>
	<line class="st1" x1="274.1" y1="696.3" x2="226.6" y2="606"/>
	<polyline class="st1" points="226.6,606 301.4,628.7 274.1,696.3 	"/>
</g>
</svg>
